<!--
  乔巴 — the app icon (the "原色小鹿" colourway, which is the default).

  Generated by scripts/make-icons.mjs from src/lib/brand/logo.ts — edit that file,
  not this one. This is the pre-JavaScript icon: the page shows it before anything
  else runs, and it is what static/manifest.webmanifest points at.
-->
<svg xmlns="http://www.w3.org/2000/svg" viewBox="0 0 512 512" width="512" height="512">
  <rect width="512" height="512" rx="116" fill="#FDFBF4"/>
  <g transform="translate(256 256) scale(6.406) translate(-32 -30)">
    <ellipse cx="17.5" cy="25.5" rx="4.6" ry="7.4" transform="rotate(-38 17.5 25.5)" fill="#C98A4B" stroke="#1D2D35" stroke-width="2"/>
    <ellipse cx="46.5" cy="25.5" rx="4.6" ry="7.4" transform="rotate(38 46.5 25.5)" fill="#C98A4B" stroke="#1D2D35" stroke-width="2"/>
    <path d="M23 24.5 C23 18 19.5 11.5 12 9" fill="none" stroke="#1D2D35" stroke-width="4.8" stroke-linecap="round" stroke-linejoin="round"/>
    <path d="M20.6 16.8 C19.4 12.6 18.6 8.6 18.4 4.6" fill="none" stroke="#1D2D35" stroke-width="4.8" stroke-linecap="round" stroke-linejoin="round"/>
    <path d="M41 24.5 C41 18 44.5 11.5 52 9" fill="none" stroke="#1D2D35" stroke-width="4.8" stroke-linecap="round" stroke-linejoin="round"/>
    <path d="M43.4 16.8 C44.6 12.6 45.4 8.6 45.6 4.6" fill="none" stroke="#1D2D35" stroke-width="4.8" stroke-linecap="round" stroke-linejoin="round"/>
    <path d="M32 20.5 C40.5 20.5 46 23.5 48.5 28.5 C51.5 34 52.5 40 51 45.5 C48.8 53.6 41.5 57.5 32 57.5 C22.5 57.5 15.2 53.6 13 45.5 C11.5 40 12.5 34 15.5 28.5 C18 23.5 23.5 20.5 32 20.5 Z" fill="#C98A4B" stroke="#1D2D35" stroke-width="2.4"/>
    <path d="M15 33.5 C15 21 22 15.5 32 15.5 C42 15.5 49 21 49 33.5" fill="none" stroke="#1D2D35" stroke-width="8.4" stroke-linecap="round" stroke-linejoin="round"/>
    <path d="M15 33.5 C15 21 22 15.5 32 15.5 C42 15.5 49 21 49 33.5" fill="none" stroke="#E8B23A" stroke-width="4.6" stroke-linecap="round" stroke-linejoin="round"/>
    <ellipse cx="15.8" cy="38.5" rx="4.9" ry="7.6" transform="rotate(-6 15.8 38.5)" fill="#E8B23A" stroke="#1D2D35" stroke-width="1.9"/>
    <ellipse cx="48.2" cy="38.5" rx="4.9" ry="7.6" transform="rotate(6 48.2 38.5)" fill="#E8B23A" stroke="#1D2D35" stroke-width="1.9"/>
    <ellipse cx="32" cy="48.4" rx="9.6" ry="6.2" fill="#FDFBF4" stroke="#1D2D35" stroke-width="1.6"/>
    <ellipse cx="32" cy="45.2" rx="3.5" ry="2.6" fill="#1D2D35"/>
    <path d="M32 47.8 C32 49.8 30.4 51 28.8 50.3" fill="none" stroke="#1D2D35" stroke-width="1.5" stroke-linecap="round" stroke-linejoin="round"/>
    <path d="M32 47.8 C32 49.8 33.6 51 35.2 50.3" fill="none" stroke="#1D2D35" stroke-width="1.5" stroke-linecap="round" stroke-linejoin="round"/>
    <circle cx="25" cy="36" r="5.9" fill="#FDFBF4" stroke="#1D2D35" stroke-width="1.3"/>
    <circle cx="25" cy="36.4" r="2.9" fill="#1D2D35"/>
    <circle cx="39" cy="36" r="5.9" fill="#FDFBF4" stroke="#1D2D35" stroke-width="1.3"/>
    <circle cx="39" cy="36.4" r="2.9" fill="#1D2D35"/>
  </g>
</svg>
